<svg xmlns="http://www.w3.org/2000/svg" xmlns:xlink="http://www.w3.org/1999/xlink" width="835.5" height="104.25" viewBox="0 0 4456 556" fill="none" version="1.1">
    
        <g transform="translate(0, 0)">
          <svg xmlns="http://www.w3.org/2000/svg" width="256" height="256" fill="none" viewBox="0 0 256 256"><rect width="256" height="256" fill="#242938" rx="60"/><path fill="#fff" d="M101.634 182.619C101.634 182.619 93.9548 187.293 106.979 188.63C122.707 190.634 131.023 190.299 148.386 186.962C148.386 186.962 153.06 189.971 159.406 192.306C120.331 209.002 70.9089 191.304 101.634 182.619ZM96.6252 160.914C96.6252 160.914 88.2753 167.26 101.299 168.593C118.327 170.262 131.69 170.597 154.732 165.926C154.732 165.926 157.741 169.267 162.747 170.936C115.664 184.961 62.8975 172.269 96.6252 160.917V160.914ZM188.795 198.984C188.795 198.984 194.471 203.658 182.449 207.334C160.073 214.012 88.6104 216.019 68.5735 207.334C61.564 204.325 74.9197 199.982 79.2587 199.319C83.6012 198.317 85.9366 198.317 85.9366 198.317C78.2569 192.973 34.8424 209.337 63.8959 214.046C143.709 227.073 209.499 208.37 188.792 199.018L188.795 198.984ZM105.307 138.203C105.307 138.203 68.9052 146.888 92.2793 149.89C102.298 151.223 122 150.892 140.368 149.555C155.396 148.221 170.458 145.548 170.458 145.548C170.458 145.548 165.113 147.886 161.441 150.222C124.342 159.915 53.2107 155.573 73.5827 145.554C90.9526 137.204 105.307 138.203 105.307 138.203V138.203ZM170.423 174.604C207.83 155.234 190.46 136.534 178.438 138.873C175.429 139.54 174.096 140.207 174.096 140.207C174.096 140.207 175.097 138.203 177.436 137.54C201.145 129.19 219.849 162.586 169.757 175.61C169.757 175.61 170.092 175.275 170.423 174.608V174.604ZM108.979 227.364C145.046 229.703 200.147 226.03 201.484 208.995C201.484 208.995 198.817 215.673 171.764 220.683C141.042 226.359 102.968 225.692 80.5957 222.016C80.5957 222.016 85.2698 226.023 108.982 227.36L108.979 227.364Z"/><path fill="#F58219" d="M147.685 28C147.685 28 168.389 49.0388 127.983 80.7594C95.5891 106.472 120.632 121.168 127.983 137.861C108.948 120.833 95.2609 105.802 104.606 91.7762C118.331 71.0828 156.062 61.0644 147.685 28ZM137 123.842C146.683 134.862 134.333 144.881 134.333 144.881C134.333 144.881 159.044 132.195 147.692 116.494C137.338 101.466 129.324 94.1184 172.738 69.0689C172.738 69.0689 104.278 86.0968 137.007 123.835L137 123.842Z"/></svg>
        </g>
         
        <g transform="translate(300, 0)">
          <svg xmlns="http://www.w3.org/2000/svg" width="256" height="256" fill="none" viewBox="0 0 256 256"><rect width="256" height="256" fill="#242938" rx="60"/><path fill="#5FB832" d="M209.545 171.821C184.93 204.618 132.347 193.547 98.6353 195.139C98.6353 195.139 92.6673 195.471 86.6563 196.461C86.6563 196.461 88.9292 195.491 91.8279 194.492C115.506 186.304 126.695 184.659 141.082 177.269C168.114 163.421 195.018 133.259 200.492 101.925C190.202 132.061 158.909 157.998 130.415 168.53C110.911 175.727 75.6419 182.731 75.6368 182.734C75.6533 182.759 74.2312 181.996 74.2113 181.979C50.2253 170.309 49.5332 118.359 93.0965 101.613C112.197 94.2661 130.466 98.3015 151.114 93.387C173.136 88.151 198.642 71.644 209.009 50.063C220.631 84.5351 234.592 138.467 209.545 171.821V171.821ZM209.973 39.3809C207.043 46.343 203.466 52.6167 199.344 58.2281C181.197 39.6038 155.868 27.9999 127.871 27.9999C72.7989 27.9999 28 72.8039 28 127.866C28 156.731 40.3209 182.764 59.9644 201.012L62.1514 202.949C58.4993 199.971 57.9377 194.608 60.8977 190.952C63.8759 187.295 69.2444 186.728 72.8983 189.69C76.562 192.658 77.1202 198.035 74.1538 201.697C71.1984 205.361 65.8202 205.914 62.1614 202.958L63.6497 204.276C81.0254 218.906 103.424 227.743 127.871 227.743C180.511 227.743 223.736 186.778 227.436 135.073C230.176 109.757 222.699 77.6106 209.973 39.3809Z"/></svg>
        </g>
         
        <g transform="translate(600, 0)">
          <svg xmlns="http://www.w3.org/2000/svg" width="256" height="256" fill="none" viewBox="0 0 256 256"><rect width="256" height="256" fill="#242938" rx="60"/><path fill="#00D8FF" d="M128.001 146.951C138.305 146.951 146.657 138.598 146.657 128.295C146.657 117.992 138.305 109.639 128.001 109.639C117.698 109.639 109.345 117.992 109.345 128.295C109.345 138.598 117.698 146.951 128.001 146.951Z"/><path fill-rule="evenodd" stroke="#00D8FF" stroke-width="8.911" d="M128.002 90.3633C153.05 90.3633 176.319 93.9575 193.864 99.9976C215.003 107.275 228 118.306 228 128.295C228 138.704 214.226 150.423 191.525 157.944C174.363 163.63 151.779 166.598 128.002 166.598C103.624 166.598 80.5389 163.812 63.1834 157.881C41.2255 150.376 28 138.506 28 128.295C28 118.387 40.4096 107.441 61.2515 100.175C78.8617 94.0353 102.705 90.3633 127.998 90.3633H128.002Z" clip-rule="evenodd"/><path fill-rule="evenodd" stroke="#00D8FF" stroke-width="8.911" d="M94.9811 109.438C107.495 87.7402 122.232 69.3783 136.23 57.1971C153.094 42.5206 169.144 36.7728 177.796 41.7623C186.813 46.9623 190.084 64.7496 185.259 88.1712C181.614 105.879 172.9 126.925 161.021 147.523C148.842 168.641 134.897 187.247 121.09 199.315C103.619 214.587 86.7284 220.114 77.8833 215.013C69.3003 210.067 66.0181 193.846 70.1356 172.161C73.6145 153.838 82.3451 131.349 94.977 109.438L94.9811 109.438Z" clip-rule="evenodd"/><path fill-rule="evenodd" stroke="#00D8FF" stroke-width="8.911" d="M95.0123 147.578C82.4633 125.904 73.9194 103.962 70.3531 85.7517C66.0602 63.8109 69.0954 47.0355 77.7401 42.0315C86.7485 36.8163 103.792 42.866 121.674 58.7437C135.194 70.7479 149.077 88.8052 160.99 109.383C173.204 130.481 182.358 151.856 185.919 169.844C190.425 192.608 186.778 210.001 177.941 215.116C169.367 220.08 153.676 214.825 136.945 200.427C122.809 188.263 107.685 169.468 95.0123 147.578Z" clip-rule="evenodd"/></svg>
        </g>
         
        <g transform="translate(900, 0)">
          <svg xmlns="http://www.w3.org/2000/svg" width="256" height="256" fill="none" viewBox="0 0 256 256"><rect width="256" height="256" fill="#242938" rx="60"/><path fill="#81CD39" d="M119.878 31.1164C124.797 28.3008 131.203 28.2883 136.117 31.1164C160.839 45.0855 185.569 59.0332 210.287 73.0108C214.937 75.6296 218.046 80.8038 217.999 86.1608V170.206C218.034 175.785 214.617 181.083 209.712 183.642C185.071 197.535 160.442 211.444 135.805 225.337C130.786 228.207 124.251 227.986 119.387 224.88C112 220.598 104.6 216.336 97.2121 212.058C95.7022 211.158 94.0004 210.442 92.9345 208.978C93.8766 207.708 95.5618 207.55 96.9309 206.995C100.014 206.014 102.847 204.44 105.679 202.913C106.396 202.423 107.27 202.611 107.957 203.049C114.274 206.671 120.536 210.399 126.874 213.986C128.226 214.767 129.595 213.73 130.751 213.086C154.931 199.419 179.141 185.805 203.318 172.134C204.214 171.703 204.709 170.752 204.636 169.771C204.653 142.046 204.64 114.317 204.645 86.5918C204.747 85.4785 204.103 84.455 203.096 83.999C178.541 70.1702 153.997 56.3205 129.446 42.4882C128.575 41.8893 127.426 41.8878 126.554 42.4837C102.002 56.3205 77.4638 70.1832 52.9124 84.011C51.9092 84.4675 51.236 85.4745 51.3554 86.5918C51.3596 114.317 51.3554 142.046 51.3554 169.775C51.2682 170.756 51.801 171.687 52.6906 172.109C59.2422 175.824 65.8024 179.513 72.3582 183.216C76.0516 185.203 80.5863 186.385 84.6555 184.862C88.2463 183.574 90.7633 179.909 90.6948 176.097C90.7288 148.534 90.6778 120.967 90.7203 93.4078C90.6309 92.1841 91.7912 91.1731 92.981 91.2885C96.1292 91.267 99.281 91.2461 102.429 91.297C103.743 91.267 104.647 92.5847 104.485 93.8174C104.472 121.555 104.519 149.293 104.464 177.03C104.472 184.423 101.435 192.467 94.5973 196.084C86.1737 200.447 75.7619 199.522 67.4399 195.338C60.2355 191.742 53.3603 187.498 46.2838 183.646C41.3661 181.101 37.966 175.782 38.0006 170.207V86.1608C37.949 80.6929 41.1825 75.4248 45.9764 72.8445C70.6133 58.9408 95.2461 45.0261 119.878 31.1164Z"/><path fill="#81CD39" d="M141.372 89.3351C152.117 88.6433 163.62 88.9255 173.289 94.2185C180.776 98.2754 184.926 106.789 185.058 115.106C184.849 116.227 183.676 116.846 182.605 116.769C179.488 116.765 176.369 116.812 173.252 116.748C171.929 116.799 171.161 115.58 170.995 114.411C170.099 110.431 167.928 106.49 164.183 104.57C158.433 101.692 151.767 101.837 145.497 101.897C140.92 102.139 135.998 102.536 132.12 105.227C129.143 107.266 128.239 111.382 129.301 114.697C130.303 117.077 133.05 117.845 135.299 118.553C148.248 121.94 161.97 121.602 174.672 126.059C179.931 127.876 185.075 131.409 186.875 136.915C189.23 144.295 188.198 153.115 182.947 159.039C178.689 163.914 172.488 166.568 166.303 168.009C158.075 169.844 149.536 169.891 141.18 169.076C133.323 168.18 125.146 166.116 119.081 160.763C113.894 156.259 111.361 149.241 111.612 142.469C111.672 141.325 112.811 140.527 113.907 140.621C117.046 140.596 120.186 140.587 123.325 140.626C124.58 140.536 125.509 141.62 125.574 142.802C126.152 146.593 127.577 150.573 130.884 152.82C137.264 156.937 145.271 156.655 152.577 156.77C158.63 156.502 165.425 156.421 170.364 152.42C172.97 150.138 173.742 146.32 173.038 143.036C172.275 140.263 169.374 138.971 166.883 138.126C154.1 134.083 140.224 135.55 127.565 130.977C122.425 129.161 117.455 125.727 115.481 120.447C112.726 112.974 113.988 103.73 119.789 98.0061C125.445 92.312 133.609 90.1192 141.372 89.3346V89.3351"/></svg>
        </g>
         
        <g transform="translate(1200, 0)">
          <svg xmlns="http://www.w3.org/2000/svg" width="256" height="256" fill="none" viewBox="0 0 256 256"><rect width="256" height="256" fill="#242938" rx="60"/><path fill="url(#paint0_linear_2_47)" d="M127.279 29C76.5066 29 79.6772 51.018 79.6772 51.018L79.7338 73.8284H128.185V80.6772H60.4893C60.4893 80.6772 28 76.9926 28 128.222C28 179.452 56.3573 177.636 56.3573 177.636H73.2812V153.863C73.2812 153.863 72.369 125.506 101.186 125.506H149.24C149.24 125.506 176.239 125.942 176.239 99.4123V55.5461C176.239 55.5461 180.338 29 127.279 29ZM100.563 44.339C105.384 44.339 109.28 48.2351 109.28 53.0556C109.28 57.8761 105.384 61.7723 100.563 61.7723C95.7426 61.7723 91.8465 57.8761 91.8465 53.0556C91.8465 48.2351 95.7426 44.339 100.563 44.339Z"/><path fill="url(#paint1_linear_2_47)" d="M128.721 227.958C179.493 227.958 176.323 205.941 176.323 205.941L176.266 183.13H127.815V176.281H195.511C195.511 176.281 228 179.966 228 128.736C228 77.5062 199.643 79.323 199.643 79.323H182.719V103.096C182.719 103.096 183.631 131.453 154.814 131.453H106.76C106.76 131.453 79.7607 131.016 79.7607 157.546V201.412C79.7607 201.412 75.6615 227.958 128.721 227.958ZM155.437 212.619C150.616 212.619 146.72 208.723 146.72 203.903C146.72 199.082 150.616 195.186 155.437 195.186C160.257 195.186 164.154 199.082 164.154 203.903C164.154 208.723 160.257 212.619 155.437 212.619Z"/><defs><linearGradient id="paint0_linear_2_47" x1="47.22" x2="146.333" y1="46.896" y2="145.02" gradientUnits="userSpaceOnUse"><stop stop-color="#387EB8"/><stop offset="1" stop-color="#366994"/></linearGradient><linearGradient id="paint1_linear_2_47" x1="108.056" x2="214.492" y1="109.905" y2="210.522" gradientUnits="userSpaceOnUse"><stop stop-color="#FFE052"/><stop offset="1" stop-color="#FFC331"/></linearGradient></defs></svg>
        </g>
         
        <g transform="translate(1500, 0)">
          <svg xmlns="http://www.w3.org/2000/svg" width="256" height="256" fill="none" viewBox="0 0 256 256"><rect width="256" height="256" fill="#023430" rx="60"/><path fill="#10AA50" d="M171.173 107.591C160.636 61.1097 138.676 48.7357 133.074 39.9886C130.764 36.1353 128.717 32.1299 126.949 28C126.653 32.1292 126.109 34.7307 122.599 37.862C115.552 44.1454 85.6217 68.5354 83.1028 121.348C80.756 170.59 119.303 200.953 124.395 204.092C128.311 206.019 133.08 204.133 135.407 202.364C153.988 189.612 179.376 155.614 171.193 107.591"/><path fill="#B8C4C2" d="M128.545 177.871C127.575 190.059 126.88 197.141 124.416 204.106C124.416 204.106 126.033 215.709 127.169 228H131.188C132.147 219.345 133.61 210.753 135.572 202.268C130.369 199.708 128.745 188.566 128.545 177.871Z"/><path fill="#12924F" d="M135.565 202.275C130.307 199.846 128.786 188.469 128.552 177.871C129.852 160.388 130.231 142.849 129.688 125.326C129.412 116.132 129.818 40.1676 127.423 29.0461C129.062 32.8129 130.949 36.4662 133.074 39.9818C138.676 48.7358 160.643 61.1097 171.173 107.591C179.376 155.532 154.126 189.44 135.565 202.275Z"/></svg>
        </g>
         
        <g transform="translate(1800, 0)">
          <svg xmlns="http://www.w3.org/2000/svg" width="256" height="256" fill="none" viewBox="0 0 256 256"><rect width="256" height="256" fill="#242938" rx="60"/><g clip-path="url(#clip0_7_147)"><path fill="#fff" fill-rule="evenodd" d="M203.801 178.21C194.011 177.938 186.416 178.941 180.051 181.619C178.218 182.355 175.277 182.355 175.035 184.662C176.015 185.63 176.133 187.214 176.992 188.556C178.459 190.991 181.033 194.271 183.357 195.973L191.191 201.571C195.965 204.488 201.351 206.193 206.002 209.113C208.696 210.817 211.388 213.007 214.082 214.834C215.454 215.807 216.285 217.392 218 217.997V217.629C217.144 216.538 216.897 214.957 216.044 213.735L212.367 210.209C208.82 205.465 204.41 201.325 199.636 197.922C195.718 195.245 187.152 191.596 185.56 187.097L185.319 186.824C188.008 186.552 191.191 185.605 193.764 184.875C197.929 183.784 201.721 184.024 206.002 182.93L211.882 181.226V180.135C209.678 177.946 208.087 175.025 205.763 172.959C199.521 167.606 192.661 162.373 185.56 157.994C181.766 155.562 176.868 153.977 172.829 151.913C171.356 151.182 168.911 150.817 168.055 149.601C165.846 146.929 164.625 143.397 163.034 140.232L152.997 119.064C150.794 114.319 149.444 109.574 146.755 105.195C134.144 84.5124 120.431 71.9828 99.375 59.6932C94.8477 57.1382 89.4616 56.0393 83.7353 54.7032L74.5546 54.2124C72.5928 53.3616 70.6364 51.0493 68.9216 49.9531C61.9441 45.5739 43.9475 36.0847 38.8029 48.5897C35.4966 56.4974 43.7006 64.2824 46.4855 68.299C48.5708 71.0966 51.2597 74.2597 52.7332 77.4228C53.5563 79.4897 53.8307 81.682 54.6895 83.8717C56.6458 89.2243 58.4842 95.1878 61.0551 100.178C62.427 102.733 63.8675 105.413 65.5824 107.723C66.5619 109.086 68.2768 109.67 68.6417 111.859C66.9268 114.294 66.8089 117.94 65.8293 120.986C61.42 134.734 63.1349 151.766 69.377 161.888C71.3389 164.928 75.9622 171.622 82.2345 169.065C87.744 166.875 86.5148 159.941 88.1062 153.857C88.4766 152.399 88.2297 151.425 88.9623 150.449V150.722L93.9834 160.819C97.7781 166.78 104.391 172.986 109.897 177.125C112.833 179.315 115.16 183.089 118.831 184.425V184.057H118.59C117.854 182.966 116.751 182.475 115.772 181.624C113.569 179.435 111.121 176.757 109.406 174.325C104.267 167.513 99.7399 159.968 95.6983 152.183C93.7365 148.412 92.0216 144.275 90.4357 140.504C89.6949 139.043 89.6949 136.85 88.4739 136.125C86.6355 138.797 83.9466 141.115 82.5939 144.398C80.2672 149.628 80.0257 156.077 79.1697 162.769C78.6758 162.891 78.8953 162.769 78.6758 163.041C74.7631 162.071 73.4132 158.051 71.9453 154.648C68.274 146.01 67.6594 132.141 70.8422 122.164C71.6983 119.609 75.375 111.579 73.9071 109.146C73.1662 106.834 70.7242 105.498 69.3743 103.671C67.7829 101.359 66.0735 98.4409 64.9705 95.8859C62.0346 89.0689 60.5667 81.5293 57.3812 74.7151C55.9077 71.552 53.3396 68.2662 51.257 65.3486C48.9303 62.0628 46.3648 59.7505 44.5265 55.8593C43.9146 54.4959 43.0585 52.3309 44.0381 50.8693C44.2795 49.8959 44.7734 49.5059 45.7475 49.2878C47.3389 47.9244 51.8716 49.6532 53.463 50.3785C57.9903 52.2054 61.7849 53.907 65.5796 56.4592C67.2945 57.6754 69.1329 59.9877 71.3361 60.5985H73.9098C77.8279 61.4493 82.2317 60.8712 85.9002 61.9619C92.3893 64.0343 98.2637 67.0719 103.532 70.3604C119.567 80.4577 132.792 94.8143 141.725 111.971C143.193 114.769 143.805 117.324 145.155 120.244C147.729 126.208 150.912 132.289 153.477 138.132C156.051 143.85 158.498 149.694 162.17 154.438C164.008 156.993 171.35 158.329 174.654 159.668C177.104 160.759 180.896 161.741 183.105 163.077C187.264 165.632 191.427 168.552 195.342 171.35C197.298 172.806 203.423 175.849 203.787 178.276L203.801 178.21ZM78.9584 72.4873C77.267 72.4724 75.5809 72.6769 73.9427 73.0954V73.3681H74.1842C75.1637 75.315 76.8786 76.6538 78.1023 78.3581L80.9202 84.1989L81.1616 83.9262C82.8765 82.71 83.7353 80.7631 83.7353 77.8454C83 76.9947 82.8793 76.1412 82.2674 75.2904C81.5321 74.0743 79.9407 73.4635 78.9584 72.4928V72.4873Z" clip-rule="evenodd"/></g><defs><clipPath id="clip0_7_147"><rect width="180" height="180" fill="#fff" transform="translate(38 38)"/></clipPath></defs></svg>
        </g>
         
        <g transform="translate(2100, 0)">
          <svg xmlns="http://www.w3.org/2000/svg" width="256" height="256" viewBox="0 0 256 256" fill="none">
<rect width="256" height="256" rx="60" fill="#F0DB4F"/>
<path d="M67.3117 213.932L86.9027 202.076C90.6821 208.777 94.1202 214.447 102.367 214.447C110.272 214.447 115.256 211.355 115.256 199.327V117.529H139.314V199.667C139.314 224.584 124.708 235.926 103.398 235.926C84.1533 235.926 72.9819 225.959 67.3113 213.93" fill="#323330"/>
<path d="M152.381 211.354L171.969 200.013C177.126 208.434 183.828 214.62 195.684 214.62C205.653 214.62 212.009 209.636 212.009 202.762C212.009 194.514 205.479 191.592 194.481 186.782L188.468 184.203C171.111 176.815 159.597 167.535 159.597 147.945C159.597 129.901 173.345 116.153 194.826 116.153C210.12 116.153 221.118 121.481 229.022 135.4L210.291 147.429C206.166 140.04 201.7 137.119 194.826 137.119C187.78 137.119 183.312 141.587 183.312 147.429C183.312 154.646 187.78 157.568 198.09 162.037L204.104 164.614C224.553 173.379 236.067 182.313 236.067 202.418C236.067 224.072 219.055 235.928 196.2 235.928C173.861 235.928 159.426 225.274 152.381 211.354" fill="#323330"/>
</svg>

        </g>
         
        <g transform="translate(2400, 0)">
          <svg xmlns="http://www.w3.org/2000/svg" width="256" height="256" fill="none" viewBox="0 0 256 256"><rect width="256" height="256" fill="#E14E1D" rx="60"/><path fill="#fff" d="M48 38L56.6098 134.593H167.32L163.605 176.023L127.959 185.661L92.38 176.037L90.0012 149.435H57.9389L62.5236 200.716L127.951 218.888L193.461 200.716L202.244 102.655H85.8241L82.901 69.9448H205.041H205.139L208 38H48Z"/><path fill="#EBEBEB" d="M128 38H48L56.6098 134.593H128V102.655H85.8241L82.901 69.9448H128V38Z"/><path fill="#EBEBEB" d="M128 185.647L127.959 185.661L92.38 176.037L90.0012 149.435H57.9388L62.5236 200.716L127.951 218.888L128 218.874V185.647Z"/></svg>
        </g>
         
        <g transform="translate(2700, 0)">
          <svg xmlns="http://www.w3.org/2000/svg" width="256" height="256" viewBox="0 0 256 256" fill="none">
<rect width="256" height="256" rx="60" fill="#0277BD"/>
<path d="M53.7527 102.651L56.6155 134.593H128.096V102.651H53.7527Z" fill="#EBEBEB"/>
<path d="M128.095 38H127.985H48L50.9036 69.9423H128.095V38Z" fill="#EBEBEB"/>
<path d="M128.095 218.841V185.608L127.955 185.645L92.3813 176.04L90.1072 150.564H72.821H58.0425L62.5175 200.718L127.948 218.882L128.095 218.841Z" fill="#EBEBEB"/>
<path d="M167.318 134.593L163.61 176.019L127.985 185.635V218.866L193.468 200.718L193.948 195.321L201.454 111.229L202.233 102.651L208 38H127.985V69.9423H172.994L170.088 102.651H127.985V134.593H167.318Z" fill="white"/>
</svg>

        </g>
         
        <g transform="translate(3000, 0)">
          <svg xmlns="http://www.w3.org/2000/svg" width="256" height="256" fill="none" viewBox="0 0 256 256"><rect width="256" height="256" fill="#242938" rx="60"/><path fill="url(#paint0_linear_2_119)" fill-rule="evenodd" d="M83 110C88.9991 86.0009 104.001 74 128 74C164 74 168.5 101 186.5 105.5C198.501 108.501 209 104.001 218 92C212.001 115.999 196.999 128 173 128C137 128 132.5 101 114.5 96.5C102.499 93.4991 92 97.9991 83 110ZM38 164C43.9991 140.001 59.0009 128 83 128C119 128 123.5 155 141.5 159.5C153.501 162.501 164 158.001 173 146C167.001 169.999 151.999 182 128 182C92 182 87.5 155 69.5 150.5C57.4991 147.499 47 151.999 38 164Z" clip-rule="evenodd"/><defs><linearGradient id="paint0_linear_2_119" x1="86.5" x2="163.5" y1="74" y2="185.5" gradientUnits="userSpaceOnUse"><stop stop-color="#32B1C1"/><stop offset="1" stop-color="#14C6B7"/></linearGradient></defs></svg>
        </g>
         
        <g transform="translate(3300, 0)">
          <svg xmlns="http://www.w3.org/2000/svg" width="256" height="256" fill="none" viewBox="0 0 256 256"><rect width="256" height="256" fill="url(#paint0_linear_158_100)" rx="60"/><g filter="url(#filter0_d_158_100)"><path fill="url(#paint1_linear_158_100)" d="M131.97 196.157C161.646 196.157 179.529 181.626 179.529 157.66C179.529 139.543 166.77 126.428 147.823 124.351V123.597C161.743 121.332 172.666 108.405 172.666 93.9689C172.666 73.3992 156.427 60 131.68 60H76V196.157H131.97ZM97.6533 77.2674H126.46C142.12 77.2674 151.013 84.2497 151.013 96.8935C151.013 110.387 140.67 117.935 121.917 117.935H97.6533V77.2674V77.2674ZM97.6533 178.89V134.071H126.266C146.76 134.071 157.393 141.619 157.393 156.339C157.393 171.058 147.05 178.89 127.523 178.89H97.6533V178.89Z"/><path stroke="#fff" stroke-width="2" d="M131.97 196.157C161.646 196.157 179.529 181.626 179.529 157.66C179.529 139.543 166.77 126.428 147.823 124.351V123.597C161.743 121.332 172.666 108.405 172.666 93.9689C172.666 73.3992 156.427 60 131.68 60H76V196.157H131.97ZM97.6533 77.2674H126.46C142.12 77.2674 151.013 84.2497 151.013 96.8935C151.013 110.387 140.67 117.935 121.917 117.935H97.6533V77.2674V77.2674ZM97.6533 178.89V134.071H126.266C146.76 134.071 157.393 141.619 157.393 156.339C157.393 171.058 147.05 178.89 127.523 178.89H97.6533V178.89Z"/></g><defs><filter id="filter0_d_158_100" width="137.529" height="170.157" x="59" y="47" color-interpolation-filters="sRGB" filterUnits="userSpaceOnUse"><feFlood flood-opacity="0" result="BackgroundImageFix"/><feColorMatrix in="SourceAlpha" result="hardAlpha" type="matrix" values="0 0 0 0 0 0 0 0 0 0 0 0 0 0 0 0 0 0 127 0"/><feOffset dy="4"/><feGaussianBlur stdDeviation="8"/><feColorMatrix type="matrix" values="0 0 0 0 0 0 0 0 0 0 0 0 0 0 0 0 0 0 0.15 0"/><feBlend in2="BackgroundImageFix" mode="normal" result="effect1_dropShadow_158_100"/><feBlend in="SourceGraphic" in2="effect1_dropShadow_158_100" mode="normal" result="shape"/></filter><linearGradient id="paint0_linear_158_100" x1="0" x2="256" y1="0" y2="256" gradientUnits="userSpaceOnUse"><stop stop-color="#9013FE"/><stop offset="1" stop-color="#6B11F4"/></linearGradient><linearGradient id="paint1_linear_158_100" x1="85.793" x2="148.541" y1="68.962" y2="175.084" gradientUnits="userSpaceOnUse"><stop stop-color="#fff"/><stop offset="1" stop-color="#F1E5FC"/></linearGradient></defs></svg>
        </g>
         
        <g transform="translate(3600, 0)">
          <svg xmlns="http://www.w3.org/2000/svg" width="256" height="256" fill="none" viewBox="0 0 256 256"><rect width="256" height="256" fill="#F03C2E" rx="60"/><g clip-path="url(#clip0_7_283)"><path fill="#fff" d="M224.225 119.094L136.906 31.775C135.711 30.5787 134.291 29.6298 132.729 28.9824C131.166 28.3349 129.491 28.0017 127.8 28.0017C126.109 28.0017 124.434 28.3349 122.871 28.9824C121.309 29.6298 119.889 30.5787 118.694 31.775L100.569 49.9L123.569 72.9C128.919 71.025 135.044 72.3062 139.306 76.5687C141.335 78.6014 142.752 81.1638 143.394 83.9632C144.036 86.7626 143.878 89.6862 142.937 92.4L165.106 114.569C170.469 112.719 176.656 113.912 180.937 118.206C182.361 119.63 183.49 121.32 184.26 123.18C185.03 125.04 185.426 127.033 185.426 129.046C185.425 131.059 185.029 133.052 184.258 134.912C183.487 136.771 182.358 138.461 180.934 139.884C179.511 141.308 177.821 142.436 175.961 143.206C174.101 143.977 172.108 144.373 170.095 144.372C168.082 144.372 166.088 143.975 164.229 143.205C162.369 142.434 160.679 141.305 159.256 139.881C154.756 135.381 153.644 128.756 155.919 123.212L135.244 102.537V156.944C136.745 157.686 138.116 158.666 139.306 159.844C140.729 161.267 141.858 162.956 142.629 164.816C143.399 166.675 143.795 168.668 143.795 170.681C143.795 172.694 143.399 174.687 142.629 176.546C141.858 178.406 140.729 180.096 139.306 181.519C137.883 182.942 136.193 184.071 134.334 184.841C132.474 185.611 130.481 186.008 128.469 186.008C126.456 186.008 124.463 185.611 122.604 184.841C120.744 184.071 119.054 182.942 117.631 181.519C116.206 180.096 115.076 178.407 114.305 176.548C113.533 174.688 113.136 172.694 113.136 170.681C113.136 168.668 113.533 166.675 114.305 164.815C115.076 162.955 116.206 161.266 117.631 159.844C119.112 158.369 120.756 157.25 122.65 156.5V101.587C120.825 100.837 119.112 99.7312 117.631 98.2437C115.479 96.0943 114.016 93.3526 113.428 90.3684C112.841 87.3841 113.155 84.2924 114.331 81.4875L91.6437 58.8125L31.7687 118.625C30.5716 119.821 29.6219 121.241 28.9739 122.804C28.3259 124.367 27.9924 126.042 27.9924 127.734C27.9924 129.426 28.3259 131.102 28.9739 132.665C29.6219 134.228 30.5716 135.648 31.7687 136.844L119.094 224.156C120.289 225.352 121.709 226.301 123.271 226.949C124.834 227.596 126.509 227.929 128.2 227.929C129.891 227.929 131.566 227.596 133.129 226.949C134.691 226.301 136.111 225.352 137.306 224.156L224.225 137.375C225.422 136.179 226.372 134.759 227.02 133.196C227.668 131.633 228.001 129.958 228.001 128.266C228.001 126.574 227.668 124.898 227.02 123.335C226.372 121.772 225.422 120.352 224.225 119.156"/></g><defs><clipPath id="clip0_7_283"><rect width="200" height="200" fill="#fff" transform="translate(28 28)"/></clipPath></defs></svg>
        </g>
         
        <g transform="translate(3900, 0)">
          <svg xmlns="http://www.w3.org/2000/svg" width="256" height="256" viewBox="0 0 256 256" fill="none">
<rect width="256" height="256" rx="60" fill="#242938"/>
<path d="M128.001 30C72.7791 30 28 74.7708 28 130.001C28 174.184 56.6533 211.668 96.3867 224.891C101.384 225.817 103.219 222.722 103.219 220.081C103.219 217.696 103.126 209.819 103.083 201.463C75.2631 207.512 69.3927 189.664 69.3927 189.664C64.8437 178.105 58.2894 175.032 58.2894 175.032C49.2163 168.825 58.9733 168.953 58.9733 168.953C69.0151 169.658 74.3026 179.258 74.3026 179.258C83.2217 194.546 97.6965 190.126 103.403 187.571C104.301 181.107 106.892 176.696 109.752 174.199C87.5405 171.67 64.1913 163.095 64.1913 124.778C64.1913 113.86 68.0977 104.939 74.4947 97.9362C73.4564 95.4175 70.0335 85.2465 75.4635 71.4722C75.4635 71.4722 83.8609 68.7845 102.971 81.7226C110.948 79.5069 119.502 78.3958 128.001 78.3577C136.499 78.3958 145.061 79.5069 153.052 81.7226C172.139 68.7845 180.525 71.4722 180.525 71.4722C185.968 85.2465 182.544 95.4175 181.505 97.9362C187.917 104.939 191.797 113.86 191.797 124.778C191.797 163.187 168.403 171.644 146.135 174.119C149.722 177.223 152.918 183.308 152.918 192.638C152.918 206.018 152.802 216.787 152.802 220.081C152.802 222.742 154.602 225.86 159.671 224.878C199.383 211.64 228 174.169 228 130.001C228 74.7708 183.227 30 128.001 30ZM65.4536 172.453C65.2333 172.95 64.4517 173.099 63.7396 172.758C63.0143 172.432 62.6069 171.754 62.8421 171.256C63.0574 170.744 63.8406 170.602 64.5643 170.945C65.2913 171.271 65.7053 171.955 65.4536 172.453ZM70.3725 176.842C69.8956 177.285 68.9633 177.079 68.3307 176.38C67.6766 175.683 67.554 174.751 68.0376 174.302C68.5294 173.86 69.4336 174.067 70.0893 174.764C70.7434 175.47 70.8709 176.395 70.3725 176.842ZM73.7471 182.458C73.1344 182.884 72.1325 182.485 71.5132 181.595C70.9004 180.706 70.9004 179.64 71.5264 179.212C72.1474 178.785 73.1344 179.169 73.762 180.052C74.373 180.956 74.373 182.023 73.7471 182.458ZM79.4542 188.962C78.9061 189.566 77.7386 189.404 76.8841 188.579C76.0098 187.773 75.7663 186.629 76.3161 186.024C76.8709 185.418 78.045 185.589 78.9061 186.407C79.7738 187.211 80.0387 188.364 79.4542 188.962ZM86.8301 191.157C86.5883 191.941 85.4639 192.297 84.3312 191.964C83.2002 191.621 82.46 190.704 82.6885 189.912C82.9237 189.124 84.053 188.753 85.194 189.109C86.3234 189.45 87.0652 190.361 86.8301 191.157ZM95.2242 192.089C95.2523 192.913 94.2919 193.597 93.1029 193.612C91.9073 193.639 90.9402 192.971 90.9269 192.16C90.9269 191.327 91.8659 190.65 93.0615 190.63C94.2505 190.607 95.2242 191.269 95.2242 192.089ZM103.47 191.773C103.613 192.577 102.787 193.404 101.606 193.624C100.445 193.836 99.3702 193.339 99.2229 192.541C99.0788 191.716 99.92 190.89 101.079 190.676C102.262 190.471 103.32 190.955 103.47 191.773Z" fill="white"/>
</svg>

        </g>
         
        <g transform="translate(4200, 0)">
          <svg xmlns="http://www.w3.org/2000/svg" width="256" height="256" fill="none" viewBox="0 0 256 256"><rect width="256" height="256" fill="#242938" rx="60"/><path fill="#2489CA" d="M33.7158 100.208C33.7158 100.208 28.9814 96.795 34.6627 92.2381L47.8994 80.402C47.8994 80.402 51.6869 76.4172 55.6915 79.8891L177.84 172.368V216.714C177.84 216.714 177.781 223.678 168.844 222.908L33.7158 100.208Z"/><path fill="#1070B3" d="M65.1997 128.792L33.7157 157.415C33.7157 157.415 30.4805 159.822 33.7157 164.123L48.3333 177.418C48.3333 177.418 51.8052 181.147 56.9341 176.905L90.3119 151.596L65.1997 128.792Z"/><path fill="#0877B9" d="M120.474 129.029L178.215 84.9391L177.84 40.83C177.84 40.83 175.374 31.2033 167.148 36.2139L90.312 106.145L120.474 129.029Z"/><path fill="#3C99D4" d="M168.844 222.968C172.198 226.4 176.262 225.276 176.262 225.276L221.259 203.103C227.019 199.177 226.21 194.305 226.21 194.305V61.8982C226.21 56.0788 220.252 54.0667 220.252 54.0667L181.253 35.267C172.731 30 167.148 36.2139 167.148 36.2139C167.148 36.2139 174.328 31.0455 177.84 40.83V215.905C177.84 217.109 177.583 218.292 177.071 219.358C176.045 221.429 173.816 223.362 168.47 222.553L168.844 222.968Z"/></svg>
        </g>
         
        <g transform="translate(0, 300)">
          <svg xmlns="http://www.w3.org/2000/svg" width="256" height="256" viewBox="0 0 256 256" fill="none">
<rect width="256" height="256" rx="60" fill="#FF6C37"/>
<path d="M169.061 88.6123L118.521 139.153L104.268 124.901C153.971 75.1986 158.882 79.5101 169.061 88.6123Z" fill="#EEEEEE"/>
<path d="M118.521 140.35C118.161 140.35 117.922 140.231 117.682 139.991L103.31 125.739C102.831 125.26 102.831 124.542 103.31 124.063C153.851 73.5211 159.12 78.3118 169.78 87.8932C170.02 88.1328 170.139 88.3724 170.139 88.7317C170.139 89.0911 170.02 89.3306 169.78 89.5694L119.239 139.991C119.12 140.231 118.76 140.35 118.521 140.35ZM105.945 124.901L118.521 137.476L167.265 88.7317C158.403 80.8266 152.414 78.4316 105.945 124.901Z" fill="#FF6C37"/>
<path d="M133.012 153.645L119.239 139.872L169.78 89.3315C183.314 102.984 163.073 125.141 133.012 153.645Z" fill="#EEEEEE"/>
<path d="M133.012 154.843C132.652 154.843 132.414 154.723 132.174 154.483L118.401 140.71C118.161 140.471 118.161 140.231 118.161 139.872C118.161 139.512 118.281 139.273 118.521 139.033L169.061 88.4927C169.54 88.0135 170.259 88.0135 170.738 88.4927C173.852 91.3668 175.529 95.4387 175.409 99.6305C175.17 112.924 160.079 129.811 133.97 154.483C133.611 154.723 133.251 154.843 133.012 154.843ZM120.916 139.872C128.58 147.656 131.815 150.771 133.012 151.968C153.133 132.806 172.654 113.164 172.774 99.6305C172.894 96.5168 171.697 93.4031 169.66 91.0074L120.916 139.872Z" fill="#FF6C37"/>
<path d="M104.508 125.26L114.688 135.44C114.927 135.68 114.927 135.919 114.688 136.159C114.568 136.279 114.568 136.279 114.449 136.279L93.3693 140.83C92.292 140.95 91.3337 140.231 91.0942 139.153C90.9744 138.554 91.214 137.956 91.5733 137.596L103.789 125.38C104.029 125.14 104.388 125.02 104.508 125.26Z" fill="#EEEEEE"/>
<path d="M93.01 142.028C91.214 142.028 89.8963 140.59 89.8963 138.793C89.8963 137.956 90.2557 137.117 90.8546 136.518L103.07 124.302C103.789 123.703 104.748 123.703 105.466 124.302L115.646 134.482C116.364 135.081 116.364 136.159 115.646 136.877C115.406 137.117 115.167 137.237 114.807 137.357L93.7287 141.908C93.4891 141.908 93.2495 142.028 93.01 142.028ZM104.149 126.577L92.4118 138.314C92.1723 138.554 92.0525 138.913 92.292 139.272C92.4118 139.632 92.7704 139.752 93.1298 139.632L112.891 135.32L104.149 126.577Z" fill="#FF6C37"/>
<path d="M195.769 60.5877C188.104 53.1625 175.768 53.4021 168.342 61.1867C160.917 68.9712 161.157 81.1871 168.941 88.6131C175.289 94.7207 184.871 95.7988 192.416 91.2476L178.762 77.5943L195.769 60.5877Z" fill="#EEEEEE"/>
<path d="M182.355 95.1996C170.978 95.1996 161.756 85.9776 161.756 74.6002C161.756 63.222 170.978 54 182.355 54C187.625 54 192.775 56.0364 196.607 59.749C196.847 59.9886 196.967 60.2281 196.967 60.5875C196.967 60.9469 196.847 61.1864 196.607 61.426L180.439 77.5941L193.134 90.2891C193.614 90.7683 193.614 91.487 193.134 91.9661C193.015 92.0859 193.015 92.0859 192.895 92.2057C189.781 94.1215 186.068 95.1996 182.355 95.1996ZM182.355 56.5155C172.295 56.5155 164.151 64.6595 164.271 74.72C164.271 84.7805 172.414 92.9244 182.475 92.8047C185.23 92.8047 187.984 92.2057 190.499 90.888L177.924 78.4326C177.684 78.193 177.565 77.9534 177.565 77.5941C177.565 77.2347 177.684 76.9951 177.924 76.7556L193.973 60.7073C190.739 57.953 186.667 56.5155 182.355 56.5155Z" fill="#FF6C37"/>
<path d="M196.128 60.9471L195.889 60.7075L178.762 77.5943L192.296 91.1279C193.614 90.2894 194.93 89.3319 196.009 88.2538C203.673 80.708 203.673 68.4921 196.128 60.9471Z" fill="#EEEEEE"/>
<path d="M192.416 92.4448C192.056 92.4448 191.817 92.325 191.577 92.0855L177.924 78.4321C177.684 78.1925 177.565 77.953 177.565 77.5936C177.565 77.2342 177.684 76.9947 177.924 76.7551L194.93 59.7485C195.41 59.2694 196.128 59.2694 196.607 59.7485L196.967 59.9881C204.991 68.0122 204.991 80.9469 197.087 89.0916C195.889 90.2887 194.571 91.3667 193.134 92.2053C192.775 92.325 192.536 92.4448 192.416 92.4448ZM180.439 77.5936L192.536 89.6897C193.494 89.0916 194.452 88.2531 195.17 87.5344C201.997 80.7073 202.356 69.5695 195.769 62.3838L180.439 77.5936Z" fill="#FF6C37"/>
<path d="M171.098 90.7674C168.223 87.8933 163.552 87.8933 160.678 90.7674L115.526 135.919L123.072 143.464L170.858 101.547C173.972 98.9113 174.211 94.2404 171.577 91.1267C171.337 91.007 171.217 90.8872 171.098 90.7674Z" fill="#EEEEEE"/>
<path d="M122.952 144.662C122.593 144.662 122.353 144.542 122.113 144.303L114.568 136.758C114.089 136.279 114.089 135.56 114.568 135.081L159.719 89.929C163.073 86.5758 168.462 86.5758 171.816 89.929C175.17 93.283 175.17 98.6719 171.816 102.026C171.697 102.146 171.577 102.265 171.457 102.385L123.67 144.303C123.551 144.542 123.311 144.662 122.952 144.662ZM117.203 135.919L123.072 141.788L170.02 100.588C172.654 98.4323 172.894 94.4801 170.738 91.8456C168.582 89.2111 164.63 88.9715 161.995 91.1269C161.876 91.2467 161.756 91.3664 161.516 91.4862L117.203 135.919Z" fill="#FF6C37"/>
<path d="M80.9139 187.3C80.4347 187.539 80.1951 188.018 80.3149 188.497L82.3513 197.121C82.8305 198.318 82.1117 199.756 80.7941 200.115C79.8358 200.474 78.7585 200.115 78.1596 199.397L64.9854 186.342L107.981 143.346L122.832 143.585L132.892 153.646C130.497 155.682 116.005 169.694 80.9139 187.3Z" fill="#EEEEEE"/>
<path d="M79.9556 201.311C78.9981 201.311 78.0398 200.952 77.4408 200.234L64.3864 187.179C64.1469 186.94 64.0271 186.7 64.0271 186.341C64.0271 185.982 64.1469 185.742 64.3864 185.502L107.382 142.507C107.622 142.267 107.981 142.147 108.221 142.147L123.072 142.387C123.431 142.387 123.67 142.507 123.909 142.746L133.97 152.806C134.21 153.046 134.329 153.405 134.329 153.764C134.329 154.124 134.21 154.363 133.85 154.603L133.012 155.322C120.317 166.459 103.07 177.598 81.6326 188.257L83.669 196.76C84.0275 198.317 83.3096 199.994 81.8722 200.832C81.1534 201.191 80.5545 201.311 79.9556 201.311ZM66.7814 186.341L79.1178 198.557C79.4764 199.156 80.1951 199.395 80.7941 199.036C81.393 198.677 81.6326 197.958 81.2732 197.359L79.2376 188.736C78.9981 187.658 79.4764 186.7 80.4347 186.221C101.633 175.562 118.76 164.544 131.335 153.645L122.473 144.782L108.7 144.542L66.7814 186.341Z" fill="#FF6C37"/>
<path d="M54.8051 196.641L65.1052 186.341L80.4347 201.671L56.0029 199.995C54.9249 199.875 54.2061 198.917 54.3259 197.838C54.3259 197.359 54.4457 196.88 54.8051 196.641Z" fill="#EEEEEE"/>
<path d="M80.4347 202.749L55.8831 201.072C54.0863 200.952 52.8884 199.396 53.0082 197.599C53.128 196.88 53.3676 196.162 53.9665 195.683L64.2666 185.383C64.7458 184.904 65.4645 184.904 65.9429 185.383L81.2732 200.713C81.6326 201.072 81.7524 201.551 81.5128 202.031C81.2732 202.51 80.9139 202.749 80.4347 202.749ZM65.1051 188.018L55.6435 197.479C55.2842 197.719 55.2842 198.318 55.6435 198.557C55.7633 198.677 55.8831 198.797 56.1227 198.797L77.321 200.234L65.1051 188.018Z" fill="#FF6C37"/>
<path d="M103.789 148.855C103.07 148.855 102.591 148.256 102.591 147.657C102.591 147.298 102.711 147.059 102.951 146.819L114.568 135.202C115.047 134.722 115.766 134.722 116.245 135.202L123.79 142.747C124.149 143.106 124.269 143.465 124.149 143.945C124.029 144.304 123.67 144.663 123.192 144.783L104.029 148.855C103.909 148.855 103.789 148.855 103.789 148.855ZM115.406 137.717L107.502 145.622L120.436 142.866L115.406 137.717Z" fill="#FF6C37"/>
<path d="M122.832 143.584L109.658 146.459C108.7 146.699 107.741 146.1 107.502 145.142C107.382 144.543 107.502 143.944 107.981 143.465L115.286 136.159L122.832 143.584Z" fill="#EEEEEE"/>
<path d="M109.418 147.657C107.741 147.657 106.424 146.34 106.424 144.663C106.424 143.825 106.783 143.106 107.262 142.508L114.568 135.202C115.047 134.722 115.766 134.722 116.245 135.202L123.79 142.747C124.149 143.106 124.269 143.465 124.149 143.945C124.029 144.304 123.67 144.663 123.192 144.783L110.017 147.657C109.778 147.657 109.538 147.657 109.418 147.657ZM115.406 137.717L108.939 144.184C108.7 144.424 108.7 144.663 108.819 144.903C108.939 145.142 109.179 145.262 109.538 145.262L120.556 142.866L115.406 137.717Z" fill="#FF6C37"/>
<path d="M196.248 72.4434C196.009 71.7254 195.17 71.3661 194.451 71.6057C193.733 71.8444 193.374 72.6829 193.614 73.4017C193.614 73.5215 193.733 73.6412 193.733 73.761C194.451 75.1985 194.213 76.9945 193.254 78.3121C192.775 78.9111 192.895 79.7496 193.374 80.2287C193.973 80.7071 194.811 80.5881 195.29 79.9892C197.087 77.7132 197.446 74.8391 196.248 72.4434Z" fill="#FF6C37"/>
</svg>

        </g>
         
        <g transform="translate(300, 300)">
          <svg xmlns="http://www.w3.org/2000/svg" width="256" height="256" fill="none" viewBox="0 0 256 256"><rect width="256" height="256" fill="#242938" rx="60"/><path fill="#2C2255" d="M83.0442 153.434H52.3774C56.4379 167.363 63.9727 179.848 75.0039 190.879C92.59 208.469 113.737 217.249 138.465 217.249C143.409 217.249 148.198 216.881 152.85 216.18C171.477 213.368 187.784 204.947 201.757 190.879C212.859 179.852 220.447 167.363 224.539 153.434H212.094H193.896H83.0442Z"/><path fill="#2C2255" d="M66.1338 111.782H50.1137C49.5276 115.302 49.1283 118.896 48.947 122.581H67.9873H77.5386H215.405H227.989C227.806 118.896 227.407 115.302 226.815 111.782"/><path fill="#2C2255" d="M48.947 132.609C49.1283 136.295 49.5258 139.889 50.1137 143.407H66.7694H79.3939H214.281H226.819C227.409 139.889 227.812 136.295 227.995 132.609"/><path fill="#2C2255" d="M224.542 101.753C220.454 87.7855 212.864 75.2434 201.756 64.1335C187.82 50.1994 171.559 41.8367 152.993 39.0236C148.297 38.3111 143.46 37.9375 138.465 37.9375C113.736 37.9375 92.5878 46.672 75.0035 64.1335C63.9687 75.2434 56.4302 87.7855 52.3716 101.753"/><path fill="#F7941E" d="M43.6227 127.597C43.6227 80.3004 79.1448 41.0018 125.355 34.0897C124.209 34.0476 123.057 34 121.899 34C70.0422 34 28 75.9067 28 127.597C28 179.29 70.0403 221.193 121.899 221.193C123.061 221.193 124.213 221.15 125.363 221.106C79.1448 214.194 43.6227 174.896 43.6227 127.597Z"/><path fill="url(#paint0_linear_159_844)" d="M199.398 122.579C199.097 118.878 198.475 115.268 197.544 111.781H79.3939C78.4635 115.264 77.8389 118.876 77.5386 122.579H199.398Z"/><path fill="url(#paint1_linear_159_844)" d="M199.398 132.609H77.5403C77.8406 136.31 78.4615 139.918 79.3938 143.407H197.546C198.476 139.92 199.097 136.31 199.398 132.609Z"/><path fill="url(#paint2_linear_159_844)" d="M138.469 188.748C163.006 188.748 184.156 174.291 193.896 153.434H83.0425C92.7824 174.291 113.933 188.748 138.469 188.748Z"/><path fill="#fff" d="M68.509 132.608H77.4541H199.626H215.676H227.868C227.952 131.013 228 129.407 228 127.788C228 126.039 227.936 124.306 227.837 122.577H215.674H199.625H77.4522H67.8753H48.9467C48.8478 124.302 48.7837 126.039 48.7837 127.788C48.7837 129.407 48.8313 131.013 48.9156 132.608H68.509Z"/><path fill="#fff" d="M82.685 101.753H52.3699C51.3736 105.018 50.7307 108.368 50.1135 111.784H65.7271H79.022H197.482H214.258H226.249C225.63 108.372 224.834 105.022 223.839 101.753"/><path fill="#fff" d="M214.733 143.405H197.956H79.4983H66.839H50.1118C50.7125 146.817 51.3957 150.165 52.3756 153.434H83.1576H194.297H212.542H224.425C225.403 150.168 226.193 146.82 226.795 143.405H214.733Z"/><defs><linearGradient id="paint0_linear_159_844" x1="138.467" x2="138.467" y1="229.42" y2="94.558" gradientUnits="userSpaceOnUse"><stop offset=".303" stop-color="#473788"/><stop offset=".872" stop-color="#2C2255"/></linearGradient><linearGradient id="paint1_linear_159_844" x1="138.468" x2="138.468" y1="229.422" y2="94.56" gradientUnits="userSpaceOnUse"><stop offset=".303" stop-color="#473788"/><stop offset=".872" stop-color="#2C2255"/></linearGradient><linearGradient id="paint2_linear_159_844" x1="138.469" x2="138.469" y1="229.417" y2="94.564" gradientUnits="userSpaceOnUse"><stop offset=".303" stop-color="#473788"/><stop offset=".863" stop-color="#2C2255"/></linearGradient></defs></svg>
        </g>
        
  </svg>